<svg width="112" height="112" viewBox="0 0 112 112" fill="none" xmlns="http://www.w3.org/2000/svg">
<path d="M46.9102 55.5008C46.9102 49.488 48.1364 44.1478 50.589 39.48C53.1207 34.8123 56.5622 31.173 60.9136 28.5622C65.344 25.8723 70.4469 24.5273 76.2224 24.5273C84.213 24.5273 90.74 26.6239 95.8034 30.817C98.7441 33.1695 100.973 36.0006 102.491 39.3104C104.395 43.4629 100.705 47.5497 96.1367 47.5497C92.6544 47.5497 89.8592 44.9811 87.6867 42.2595C87.0142 41.417 86.2386 40.6883 85.3602 40.0734C83.0658 38.3329 80.1781 37.4626 76.6971 37.4626C73.6907 37.4626 71.0008 38.2142 68.6273 39.7174C66.333 41.1414 64.5529 43.1984 63.287 45.8883C62.0212 48.5782 61.3883 51.7824 61.3883 55.5008C61.3883 59.2191 61.9816 62.4233 63.1683 65.1132C64.3551 67.8031 66.0561 69.8996 68.2713 71.4028C70.5656 72.8269 73.2555 73.5389 76.341 73.5389C79.9803 73.5389 82.9867 72.6686 85.3602 70.9281C86.2427 70.3018 87.0176 69.5782 87.685 68.7573C89.8813 66.0558 92.6757 63.4518 96.1573 63.4518C100.738 63.4518 104.366 67.6076 102.328 71.7106C101.658 73.0599 100.868 74.3418 99.9569 75.5563C97.4253 78.9583 94.142 81.6482 90.1071 83.626C86.0722 85.5248 81.4835 86.4742 76.341 86.4742C70.4074 86.4742 65.2253 85.2083 60.7949 82.6767C56.3644 80.0659 52.9229 76.4662 50.4703 71.8775C48.0969 67.2097 46.9102 61.7508 46.9102 55.5008Z" fill="#282828"/>
<path d="M46.8632 53.8908C47.1357 49.9844 50.5047 47.027 54.4135 47.2628C58.1818 47.4902 61.1214 50.6125 61.1214 54.3876V72.2992C61.1214 76.7043 55.6716 78.7683 52.7534 75.4685C50.7509 73.2042 47.1765 73.3414 45.3535 75.7525L44.7558 76.5429C44.6364 76.7034 44.521 76.8587 44.4093 77.0091C40.3846 82.4306 34.4077 86.4734 27.6556 86.4734C20.9308 86.4734 15.6696 84.3373 11.8721 80.0651C8.07455 75.7929 6.17578 70.0966 6.17578 62.9763L6.17578 33.5457C6.17578 29.5477 9.41681 26.3066 13.4148 26.3066C17.4128 26.3066 20.6539 29.5477 20.6539 33.5457V57.8734C20.6539 63.4114 21.7219 67.4067 23.8581 69.8593C25.9942 72.3118 29.0797 73.5381 33.1145 73.5381C37.7032 73.5381 41.1052 72.1932 43.3204 69.5033C45.5356 66.7343 46.6433 62.6203 46.6433 57.0427L46.8632 53.8908Z" fill="#282828"/>
</svg>
