<svg width="800" height="503" viewBox="0 0 800 503" fill="none" xmlns="http://www.w3.org/2000/svg">
<path d="M330.34 251.19C330.34 202.428 340.285 159.119 360.175 121.264C380.706 83.4093 408.616 53.8952 443.905 32.7221C479.835 10.9074 521.219 0 568.056 0C632.859 0 685.792 17.0027 726.855 51.008C750.703 70.0868 768.782 93.0471 781.091 119.889C796.534 153.565 766.606 186.708 729.558 186.708C701.317 186.708 678.649 165.877 661.03 143.806C655.576 136.973 649.287 131.063 642.162 126.076C623.556 111.961 600.137 104.903 571.906 104.903C547.525 104.903 525.71 110.999 506.462 123.189C487.855 134.738 473.419 151.42 463.153 173.235C452.887 195.049 447.754 221.035 447.754 251.19C447.754 281.346 452.567 307.331 462.191 329.146C471.815 350.961 485.609 367.963 503.575 380.154C522.181 391.703 543.996 397.477 569.019 397.477C598.533 397.477 622.914 390.42 642.162 376.304C649.319 371.225 655.604 365.357 661.017 358.699C678.828 336.79 701.49 315.672 729.725 315.672C766.877 315.672 796.297 349.375 779.772 382.65C774.337 393.593 767.926 403.989 760.539 413.838C740.008 441.428 713.381 463.242 680.659 479.283C647.937 494.681 610.723 502.381 569.019 502.381C520.898 502.381 478.873 492.115 442.942 471.583C407.012 450.41 379.102 421.217 359.212 384.004C339.964 346.149 330.34 301.877 330.34 251.19Z" fill="#F5F5F5"/>
<path d="M329.967 238.139C332.177 206.459 359.499 182.475 391.199 184.388C421.759 186.232 445.598 211.553 445.598 242.168V398.658C445.598 430.889 405.924 446.227 384.244 422.378C370.556 407.322 347.001 406.943 332.836 421.551L328.484 426.04C328.284 426.245 328.107 426.471 327.954 426.714C313.838 449.003 292.742 467.168 264.664 481.207C236.433 495.322 206.278 502.38 174.197 502.38C119.66 502.38 76.9932 485.056 46.1959 450.409C15.3986 415.763 0 369.567 0 311.822L0 73.1429C0 40.7198 26.2842 14.4355 58.7073 14.4355C91.1304 14.4355 117.415 40.7197 117.415 73.1428L117.415 270.438C117.415 315.351 126.076 347.752 143.4 367.642C160.723 387.532 185.746 397.477 218.468 397.477C255.682 397.477 283.271 386.569 301.236 364.755C319.201 342.298 328.183 308.934 328.183 263.701L329.967 238.139Z" fill="#F5F5F5"/>
</svg>
